<svg version="1.1" xmlns="http://www.w3.org/2000/svg" xmlns:xlink="http://www.w3.org/1999/xlink" width="1120.88623046875" height="844"><defs/><g><g transform="translate(-142,-62) scale(1,1)"><path fill="none" stroke="#000000" d="M 376 72 L 824 72 L 824 896 L 376 896 L 376 72" stroke-miterlimit="10"/></g><g transform="translate(-142,-62) scale(1,1)"><path fill="#ffffff" stroke="none" d="M 376 72 L 376 94 L 392 94 L 403 83 L 403 72 L 376 72"/></g><g transform="translate(-142,-62) scale(1,1)"><path fill="none" stroke="#000000" d="M 376 72 L 376 94 L 392 94 L 403 83 L 403 72 L 376 72 L 376 72" stroke-miterlimit="10"/></g><g transform="translate(-142,-62) scale(1,1)"><g><path fill="none" stroke="none"/><text fill="#000000" stroke="none" font-family="Arial" font-size="13px" font-style="normal" font-weight="normal" text-decoration="none" x="387" y="89.5"></text></g></g><g transform="translate(-142,-62) scale(1,1)"><g><path fill="none" stroke="none"/><text fill="#000000" stroke="none" font-family="Arial" font-size="13px" font-style="normal" font-weight="bold" text-decoration="none" x="381" y="89.5"></text></g></g><g transform="translate(-142,-62) scale(1,1)"><rect fill="#C0C0C0" stroke="none" x="383" y="79" width="118.10986328125" height="24" opacity="0.2"/></g><g transform="translate(-142,-62) scale(1,1)"><rect fill="#ffffff" stroke="none" x="376" y="72" width="118.10986328125" height="24"/></g><g transform="translate(-142,-62) scale(1,1)"><path fill="none" stroke="#000000" d="M 376 72 L 494.10986328125 72 L 494.10986328125 96 L 376 96 L 376 72 Z Z" stroke-miterlimit="10"/></g><g transform="translate(-142,-62) scale(1,1)"><g><path fill="none" stroke="none"/><text fill="#000000" stroke="none" font-family="Arial" font-size="13px" font-style="normal" font-weight="bold" text-decoration="none" x="403.25634765625" y="91.5">Application</text></g></g><g transform="translate(-142,-62) scale(1,1)"><path fill="#ffffff" stroke="none" d="M 168.40935031960228 441.68 C 168.40935031960228 436.886167936 172.29519264454774 433 177.088623046875 433 C 181.88205344920226 433 185.76789577414772 436.886167936 185.76789577414772 441.68 C 185.76789577414772 446.473832064 181.88205344920226 450.36 177.088623046875 450.36 C 172.29519264454774 450.36 168.40935031960228 446.473832064 168.40935031960228 441.68 Z"/></g><g transform="translate(-142,-62) scale(1,1)"><path fill="none" stroke="#000000" d="M 168.40935031960228 441.68 C 168.40935031960228 436.886167936 172.29519264454774 433 177.088623046875 433 C 181.88205344920226 433 185.76789577414772 436.886167936 185.76789577414772 441.68 C 185.76789577414772 446.473832064 181.88205344920226 450.36 177.088623046875 450.36 C 172.29519264454774 450.36 168.40935031960228 446.473832064 168.40935031960228 441.68 Z" stroke-miterlimit="10"/></g><g transform="translate(-142,-62) scale(1,1)"><path fill="none" stroke="#000000" d="M 177.088623046875 450.36 L 177.088623046875 467.64" stroke-miterlimit="10"/></g><g transform="translate(-142,-62) scale(1,1)"><path fill="none" stroke="#000000" d="M 167.89880486505683 456.84 L 186.27844122869317 456.84" stroke-miterlimit="10"/></g><g transform="translate(-142,-62) scale(1,1)"><path fill="none" stroke="#000000" d="M 177.088623046875 467.64 L 164.32498668323865 485" stroke-miterlimit="10"/></g><g transform="translate(-142,-62) scale(1,1)"><path fill="none" stroke="#000000" d="M 177.088623046875 467.64 L 189.85225941051135 485" stroke-miterlimit="10"/></g><g transform="translate(-142,-62) scale(1,1)"><g><path fill="none" stroke="none"/><text fill="#000000" stroke="none" font-family="Arial" font-size="13px" font-style="normal" font-weight="bold" text-decoration="none" x="163.364990234375" y="505.5">User</text></g></g><g transform="translate(-142,-62) scale(1,1)"><path fill="#C0C0C0" stroke="none" d="M 447 184 C 447 174.6111584 480.57864 167 522 167 C 563.42136 167 597 174.6111584 597 184 C 597 193.3888416 563.42136 201 522 201 C 480.57864 201 447 193.3888416 447 184 Z" opacity="0.2"/></g><g transform="translate(-142,-62) scale(1,1)"><path fill="#ffffff" stroke="none" d="M 440 177 C 440 167.6111584 473.57864 160 515 160 C 556.42136 160 590 167.6111584 590 177 C 590 186.3888416 556.42136 194 515 194 C 473.57864 194 440 186.3888416 440 177 Z"/></g><g transform="translate(-142,-62) scale(1,1)"><path fill="none" stroke="#000000" d="M 440 177 C 440 167.6111584 473.57864 160 515 160 C 556.42136 160 590 167.6111584 590 177 C 590 186.3888416 556.42136 194 515 194 C 473.57864 194 440 186.3888416 440 177 Z" stroke-miterlimit="10"/></g><g transform="translate(-142,-62) scale(1,1)"><g><path fill="none" stroke="none"/><text fill="#000000" stroke="none" font-family="Arial" font-size="13px" font-style="normal" font-weight="bold" text-decoration="none" x="470.195068359375" y="184">Search location</text></g></g><g transform="translate(-142,-62) scale(1,1)"><path fill="none" stroke="#000000" d="M 203 448 L 494 195" stroke-miterlimit="10"/></g><g transform="translate(-142,-62) scale(1,1)"><path fill="none" stroke="#000000" d="M 489.0925477385856 204.84463875934202 L 494 195 L 483.568696402542 198.4911180526673" stroke-miterlimit="10"/></g><g transform="translate(-142,-62) scale(1,1)"><path fill="#C0C0C0" stroke="none" d="M 463 376 C 463 366.6111584 513.36796 359 575.5 359 C 637.63204 359 688 366.6111584 688 376 C 688 385.3888416 637.63204 393 575.5 393 C 513.36796 393 463 385.3888416 463 376 Z" opacity="0.2"/></g><g transform="translate(-142,-62) scale(1,1)"><path fill="#ffffff" stroke="none" d="M 456 369 C 456 359.6111584 506.36796 352 568.5 352 C 630.63204 352 681 359.6111584 681 369 C 681 378.3888416 630.63204 386 568.5 386 C 506.36796 386 456 378.3888416 456 369 Z"/></g><g transform="translate(-142,-62) scale(1,1)"><path fill="none" stroke="#000000" d="M 456 369 C 456 359.6111584 506.36796 352 568.5 352 C 630.63204 352 681 359.6111584 681 369 C 681 378.3888416 630.63204 386 568.5 386 C 506.36796 386 456 378.3888416 456 369 Z" stroke-miterlimit="10"/></g><g transform="translate(-142,-62) scale(1,1)"><g><path fill="none" stroke="none"/><text fill="#000000" stroke="none" font-family="Arial" font-size="13px" font-style="normal" font-weight="bold" text-decoration="none" x="498.761474609375" y="376">Show available ocations</text></g></g><g transform="translate(-142,-62) scale(1,1)"><path fill="none" stroke="#000000" d="M 520 195 L 563 351" stroke-miterlimit="10" stroke-dasharray="3"/></g><g transform="translate(-142,-62) scale(1,1)"><path fill="none" stroke="#000000" d="M 556.2412886771182 342.3213007164697 L 563 351 L 564.3576365067711 340.0841022762449" stroke-miterlimit="10"/></g><g transform="translate(-142,-62) scale(1,1)"><g><path fill="none" stroke="none"/><text fill="#000000" stroke="none" font-family="Arial" font-size="13px" font-style="normal" font-weight="normal" text-decoration="none" x="542" y="271">«include»</text></g></g><g transform="translate(-142,-62) scale(1,1)"><path fill="#C0C0C0" stroke="none" d="M 447 506.5 C 447 491.312168 493.3385232 479 550.5 479 C 607.6614768 479 654 491.312168 654 506.5 C 654 521.687832 607.6614768 534 550.5 534 C 493.3385232 534 447 521.687832 447 506.5 Z" opacity="0.2"/></g><g transform="translate(-142,-62) scale(1,1)"><path fill="#ffffff" stroke="none" d="M 440 499.5 C 440 484.312168 486.3385232 472 543.5 472 C 600.6614768 472 647 484.312168 647 499.5 C 647 514.687832 600.6614768 527 543.5 527 C 486.3385232 527 440 514.687832 440 499.5 Z"/></g><g transform="translate(-142,-62) scale(1,1)"><path fill="none" stroke="#000000" d="M 440 499.5 C 440 484.312168 486.3385232 472 543.5 472 C 600.6614768 472 647 484.312168 647 499.5 C 647 514.687832 600.6614768 527 543.5 527 C 486.3385232 527 440 514.687832 440 499.5 Z" stroke-miterlimit="10"/></g><g transform="translate(-142,-62) scale(1,1)"><g><path fill="none" stroke="none"/><text fill="#000000" stroke="none" font-family="Arial" font-size="13px" font-style="normal" font-weight="bold" text-decoration="none" x="501.224609375" y="506.5">Select location</text></g></g><g transform="translate(-142,-62) scale(1,1)"><path fill="#C0C0C0" stroke="none" d="M 503 680 C 503 670.6111584 564.56084 663 640.5 663 C 716.43916 663 778 670.6111584 778 680 C 778 689.3888416 716.43916 697 640.5 697 C 564.56084 697 503 689.3888416 503 680 Z" opacity="0.2"/></g><g transform="translate(-142,-62) scale(1,1)"><path fill="#ffffff" stroke="none" d="M 496 673 C 496 663.6111584 557.56084 656 633.5 656 C 709.43916 656 771 663.6111584 771 673 C 771 682.3888416 709.43916 690 633.5 690 C 557.56084 690 496 682.3888416 496 673 Z"/></g><g transform="translate(-142,-62) scale(1,1)"><path fill="none" stroke="#000000" d="M 496 673 C 496 663.6111584 557.56084 656 633.5 656 C 709.43916 656 771 663.6111584 771 673 C 771 682.3888416 709.43916 690 633.5 690 C 557.56084 690 496 682.3888416 496 673 Z" stroke-miterlimit="10"/></g><g transform="translate(-142,-62) scale(1,1)"><g><path fill="none" stroke="none"/><text fill="#000000" stroke="none" font-family="Arial" font-size="13px" font-style="normal" font-weight="bold" text-decoration="none" x="547.511474609375" y="680">Download Meteo informations</text></g></g><g transform="translate(-142,-62) scale(1,1)"><path fill="none" stroke="#000000" d="M 558 528 L 624 655" stroke-miterlimit="10" stroke-dasharray="3"/></g><g transform="translate(-142,-62) scale(1,1)"><path fill="none" stroke="#000000" d="M 615.578421657713 647.9234882728338 L 624 655 L 623.0488942753004 644.0411954164497" stroke-miterlimit="10"/></g><g transform="translate(-142,-62) scale(1,1)"><g><path fill="none" stroke="none"/><text fill="#000000" stroke="none" font-family="Arial" font-size="13px" font-style="normal" font-weight="normal" text-decoration="none" x="590" y="584">«include»</text></g></g><g transform="translate(-142,-62) scale(1,1)"><path fill="#C0C0C0" stroke="none" d="M 455 776 C 455 766.6111584 497.9806592 759 551 759 C 604.0193408 759 647 766.6111584 647 776 C 647 785.3888416 604.0193408 793 551 793 C 497.9806592 793 455 785.3888416 455 776 Z" opacity="0.2"/></g><g transform="translate(-142,-62) scale(1,1)"><path fill="#ffffff" stroke="none" d="M 448 769 C 448 759.6111584 490.9806592 752 544 752 C 597.0193408 752 640 759.6111584 640 769 C 640 778.3888416 597.0193408 786 544 786 C 490.9806592 786 448 778.3888416 448 769 Z"/></g><g transform="translate(-142,-62) scale(1,1)"><path fill="none" stroke="#000000" d="M 448 769 C 448 759.6111584 490.9806592 752 544 752 C 597.0193408 752 640 759.6111584 640 769 C 640 778.3888416 597.0193408 786 544 786 C 490.9806592 786 448 778.3888416 448 769 Z" stroke-miterlimit="10"/></g><g transform="translate(-142,-62) scale(1,1)"><g><path fill="none" stroke="none"/><text fill="#000000" stroke="none" font-family="Arial" font-size="13px" font-style="normal" font-weight="bold" text-decoration="none" x="485.471435546875" y="776">Set network settings</text></g></g><g transform="translate(-142,-62) scale(1,1)"><path fill="none" stroke="#000000" d="M 203 473 L 439 491" stroke-miterlimit="10"/></g><g transform="translate(-142,-62) scale(1,1)"><path fill="none" stroke="#000000" d="M 428.5466213258535 494.42445240803534 L 439 491 L 429.1868915336278 486.02979857277256" stroke-miterlimit="10"/></g><g transform="translate(-142,-62) scale(1,1)"><path fill="none" stroke="#000000" d="M 203 492 L 522 751" stroke-miterlimit="10"/></g><g transform="translate(-142,-62) scale(1,1)"><path fill="none" stroke="#000000" d="M 511.45700303336764 747.8622914473169 L 522 751 L 516.7636703458543 741.3262803558758" stroke-miterlimit="10"/></g><g transform="translate(-142,-62) scale(1,1)"><path fill="#ffffff" stroke="none" d="M 1106.5138425071023 169.68 C 1106.5138425071023 164.886167936 1110.3996848320478 161 1115.193115234375 161 C 1119.9865456367022 161 1123.8723879616477 164.886167936 1123.8723879616477 169.68 C 1123.8723879616477 174.47383206400002 1119.9865456367022 178.36 1115.193115234375 178.36 C 1110.3996848320478 178.36 1106.5138425071023 174.47383206400002 1106.5138425071023 169.68 Z"/></g><g transform="translate(-142,-62) scale(1,1)"><path fill="none" stroke="#000000" d="M 1106.5138425071023 169.68 C 1106.5138425071023 164.886167936 1110.3996848320478 161 1115.193115234375 161 C 1119.9865456367022 161 1123.8723879616477 164.886167936 1123.8723879616477 169.68 C 1123.8723879616477 174.47383206400002 1119.9865456367022 178.36 1115.193115234375 178.36 C 1110.3996848320478 178.36 1106.5138425071023 174.47383206400002 1106.5138425071023 169.68 Z" stroke-miterlimit="10"/></g><g transform="translate(-142,-62) scale(1,1)"><path fill="none" stroke="#000000" d="M 1115.193115234375 178.36 L 1115.193115234375 195.64" stroke-miterlimit="10"/></g><g transform="translate(-142,-62) scale(1,1)"><path fill="none" stroke="#000000" d="M 1106.0032970525567 184.84 L 1124.3829334161933 184.84" stroke-miterlimit="10"/></g><g transform="translate(-142,-62) scale(1,1)"><path fill="none" stroke="#000000" d="M 1115.193115234375 195.64 L 1102.4294788707386 213" stroke-miterlimit="10"/></g><g transform="translate(-142,-62) scale(1,1)"><path fill="none" stroke="#000000" d="M 1115.193115234375 195.64 L 1127.9567515980114 213" stroke-miterlimit="10"/></g><g transform="translate(-142,-62) scale(1,1)"><g><path fill="none" stroke="none"/><text fill="#000000" stroke="none" font-family="Arial" font-size="13px" font-style="normal" font-weight="bold" text-decoration="none" x="1032.813232421875" y="233.5">Google Geocode API Server</text></g></g><g transform="translate(-142,-62) scale(1,1)"><path fill="none" stroke="#000000" d="M 591 180 L 1023 196" stroke-miterlimit="10"/></g><g transform="translate(-142,-62) scale(1,1)"><path fill="none" stroke="#000000" d="M 1012.6884870219317 199.83049606488868 L 1023 196 L 1013.0000895061236 191.41722899170594" stroke-miterlimit="10"/></g><g transform="translate(-142,-62) scale(1,1)"><path fill="none" stroke="#000000" d="M 1023 228 L 626 351" stroke-miterlimit="10"/></g><g transform="translate(-142,-62) scale(1,1)"><path fill="none" stroke="#000000" d="M 634.461651111228 343.9714538863393 L 626 351 L 636.9532234996358 352.0133582619321" stroke-miterlimit="10"/></g><g transform="translate(-142,-62) scale(1,1)"><path fill="#ffffff" stroke="none" d="M 1149.7638425071023 577.6800000000001 C 1149.7638425071023 572.8861679360001 1153.6496848320478 569 1158.443115234375 569 C 1163.2365456367022 569 1167.1223879616477 572.8861679360001 1167.1223879616477 577.6800000000001 C 1167.1223879616477 582.473832064 1163.2365456367022 586.36 1158.443115234375 586.36 C 1153.6496848320478 586.36 1149.7638425071023 582.473832064 1149.7638425071023 577.6800000000001 Z"/></g><g transform="translate(-142,-62) scale(1,1)"><path fill="none" stroke="#000000" d="M 1149.7638425071023 577.6800000000001 C 1149.7638425071023 572.8861679360001 1153.6496848320478 569 1158.443115234375 569 C 1163.2365456367022 569 1167.1223879616477 572.8861679360001 1167.1223879616477 577.6800000000001 C 1167.1223879616477 582.473832064 1163.2365456367022 586.36 1158.443115234375 586.36 C 1153.6496848320478 586.36 1149.7638425071023 582.473832064 1149.7638425071023 577.6800000000001 Z" stroke-miterlimit="10"/></g><g transform="translate(-142,-62) scale(1,1)"><path fill="none" stroke="#000000" d="M 1158.443115234375 586.36 L 1158.443115234375 603.64" stroke-miterlimit="10"/></g><g transform="translate(-142,-62) scale(1,1)"><path fill="none" stroke="#000000" d="M 1149.2532970525567 592.84 L 1167.6329334161933 592.84" stroke-miterlimit="10"/></g><g transform="translate(-142,-62) scale(1,1)"><path fill="none" stroke="#000000" d="M 1158.443115234375 603.64 L 1145.6794788707386 621" stroke-miterlimit="10"/></g><g transform="translate(-142,-62) scale(1,1)"><path fill="none" stroke="#000000" d="M 1158.443115234375 603.64 L 1171.2067515980114 621" stroke-miterlimit="10"/></g><g transform="translate(-142,-62) scale(1,1)"><g><path fill="none" stroke="none"/><text fill="#000000" stroke="none" font-family="Arial" font-size="13px" font-style="normal" font-weight="bold" text-decoration="none" x="1072.09912109375" y="641.5">OpenWeatherMap API Server</text></g></g><g transform="translate(-142,-62) scale(1,1)"><path fill="none" stroke="#000000" d="M 648 517 L 1063 590" stroke-miterlimit="10"/></g><g transform="translate(-142,-62) scale(1,1)"><path fill="none" stroke="#000000" d="M 1052.2617224694168 592.3852454121482 L 1063 590 L 1053.7202679341376 584.0935143455856" stroke-miterlimit="10"/></g><g transform="translate(-142,-62) scale(1,1)"><path fill="none" stroke="#000000" d="M 1063 619 L 772 656" stroke-miterlimit="10"/></g><g transform="translate(-142,-62) scale(1,1)"><path fill="none" stroke="#000000" d="M 781.550553820018 650.5422603826364 L 772 656 L 782.6124660636101 658.8940566768335" stroke-miterlimit="10"/></g></g></svg>