<svg version="1.1" xmlns="http://www.w3.org/2000/svg" xmlns:xlink="http://www.w3.org/1999/xlink" width="1524.95361328125" height="789"><defs/><g><g transform="translate(-10,-10) scale(1,1)"><rect fill="#C0C0C0" stroke="none" x="538.01611328125" y="415" width="421.2294921875" height="160" opacity="0.2"/></g><g transform="translate(-10,-10) scale(1,1)"><rect fill="#ffffff" stroke="none" x="531.01611328125" y="408" width="421.2294921875" height="160"/></g><g transform="translate(-10,-10) scale(1,1)"><path fill="none" stroke="#000000" d="M 531.01611328125 408 L 952.24560546875 408 L 952.24560546875 568 L 531.01611328125 568 L 531.01611328125 408 Z Z" stroke-miterlimit="10"/></g><g transform="translate(-10,-10) scale(1,1)"><path fill="none" stroke="#000000" d="M 531.01611328125 448 L 952.24560546875 448" stroke-miterlimit="10"/></g><g transform="translate(-10,-10) scale(1,1)"><path fill="none" stroke="#000000" d="M 531.01611328125 471 L 952.24560546875 471" stroke-miterlimit="10"/></g><g transform="translate(-10,-10) scale(1,1)"><g><path fill="none" stroke="none"/><text fill="#000000" stroke="none" font-family="Arial" font-size="13px" font-style="normal" font-weight="bold" text-decoration="none" x="717.785888671875" y="427.5">Address</text></g></g><g transform="translate(-10,-10) scale(1,1)"><g><path fill="none" stroke="none"/><text fill="#000000" stroke="none" font-family="Arial" font-size="13px" font-style="normal" font-weight="normal" text-decoration="none" x="692.880859375" y="442.5">(from MyGMaps)</text></g></g><g transform="translate(-10,-10) scale(1,1)"><g><path fill="none" stroke="none"/><text fill="#000000" stroke="none" font-family="Arial" font-size="13px" font-style="normal" font-weight="normal" text-decoration="none" x="536.01611328125" y="465.5">-formattedName: String</text></g></g><g transform="translate(-10,-10) scale(1,1)"><g><path fill="none" stroke="none"/><text fill="#000000" stroke="none" font-family="Arial" font-size="13px" font-style="normal" font-weight="normal" text-decoration="none" x="536.01611328125" y="488.5">«constructor»+Address(formattedName: String, coordinate: Coordinate)</text></g></g><g transform="translate(-10,-10) scale(1,1)"><g><path fill="none" stroke="none"/><text fill="#000000" stroke="none" font-family="Arial" font-size="13px" font-style="normal" font-weight="normal" text-decoration="none" x="536.01611328125" y="503.5">+getFormattedName(): String</text></g></g><g transform="translate(-10,-10) scale(1,1)"><g><path fill="none" stroke="none"/><text fill="#000000" stroke="none" font-family="Arial" font-size="13px" font-style="normal" font-weight="normal" text-decoration="none" x="536.01611328125" y="518.5">+setFormattedName(formattedName: String): void</text></g></g><g transform="translate(-10,-10) scale(1,1)"><g><path fill="none" stroke="none"/><text fill="#000000" stroke="none" font-family="Arial" font-size="13px" font-style="normal" font-weight="normal" text-decoration="none" x="536.01611328125" y="533.5">+getCoordinate(): Coordinate</text></g></g><g transform="translate(-10,-10) scale(1,1)"><g><path fill="none" stroke="none"/><text fill="#000000" stroke="none" font-family="Arial" font-size="13px" font-style="normal" font-weight="normal" text-decoration="none" x="536.01611328125" y="548.5">+setCoordinate(coordinate: Coordinate): void</text></g></g><g transform="translate(-10,-10) scale(1,1)"><g><path fill="none" stroke="none"/><text fill="#000000" stroke="none" font-family="Arial" font-size="13px" font-style="normal" font-weight="normal" text-decoration="none" x="536.01611328125" y="563.5">+toString(): String</text></g></g><g transform="translate(-10,-10) scale(1,1)"><rect fill="#C0C0C0" stroke="none" x="567.60888671875" y="606" width="362.0439453125" height="190" opacity="0.2"/></g><g transform="translate(-10,-10) scale(1,1)"><rect fill="#ffffff" stroke="none" x="560.60888671875" y="599" width="362.0439453125" height="190"/></g><g transform="translate(-10,-10) scale(1,1)"><path fill="none" stroke="#000000" d="M 560.60888671875 599 L 922.65283203125 599 L 922.65283203125 789 L 560.60888671875 789 L 560.60888671875 599 Z Z" stroke-miterlimit="10"/></g><g transform="translate(-10,-10) scale(1,1)"><path fill="none" stroke="#000000" d="M 560.60888671875 639 L 922.65283203125 639" stroke-miterlimit="10"/></g><g transform="translate(-10,-10) scale(1,1)"><path fill="none" stroke="#000000" d="M 560.60888671875 677 L 922.65283203125 677" stroke-miterlimit="10"/></g><g transform="translate(-10,-10) scale(1,1)"><g><path fill="none" stroke="none"/><text fill="#000000" stroke="none" font-family="Arial" font-size="13px" font-style="normal" font-weight="bold" text-decoration="none" x="709.832275390625" y="618.5">Coordinate</text></g></g><g transform="translate(-10,-10) scale(1,1)"><g><path fill="none" stroke="none"/><text fill="#000000" stroke="none" font-family="Arial" font-size="13px" font-style="normal" font-weight="normal" text-decoration="none" x="692.880859375" y="633.5">(from MyGMaps)</text></g></g><g transform="translate(-10,-10) scale(1,1)"><g><path fill="none" stroke="none"/><text fill="#000000" stroke="none" font-family="Arial" font-size="13px" font-style="normal" font-weight="normal" text-decoration="none" x="565.60888671875" y="656.5">-longitude: double</text></g></g><g transform="translate(-10,-10) scale(1,1)"><g><path fill="none" stroke="none"/><text fill="#000000" stroke="none" font-family="Arial" font-size="13px" font-style="normal" font-weight="normal" text-decoration="none" x="565.60888671875" y="671.5">-latitude: double</text></g></g><g transform="translate(-10,-10) scale(1,1)"><g><path fill="none" stroke="none"/><text fill="#000000" stroke="none" font-family="Arial" font-size="13px" font-style="normal" font-weight="normal" text-decoration="none" x="565.60888671875" y="694.5">«constructor»+Coordinate(longitude: String, latitude: String)</text></g></g><g transform="translate(-10,-10) scale(1,1)"><g><path fill="none" stroke="none"/><text fill="#000000" stroke="none" font-family="Arial" font-size="13px" font-style="normal" font-weight="normal" text-decoration="none" x="565.60888671875" y="709.5">«constructor»+Coordinate(longitude: double, latitude: double)</text></g></g><g transform="translate(-10,-10) scale(1,1)"><g><path fill="none" stroke="none"/><text fill="#000000" stroke="none" font-family="Arial" font-size="13px" font-style="normal" font-weight="normal" text-decoration="none" x="565.60888671875" y="724.5">+getLongitude(): double</text></g></g><g transform="translate(-10,-10) scale(1,1)"><g><path fill="none" stroke="none"/><text fill="#000000" stroke="none" font-family="Arial" font-size="13px" font-style="normal" font-weight="normal" text-decoration="none" x="565.60888671875" y="739.5">+setLongitude(longitude: double): void</text></g></g><g transform="translate(-10,-10) scale(1,1)"><g><path fill="none" stroke="none"/><text fill="#000000" stroke="none" font-family="Arial" font-size="13px" font-style="normal" font-weight="normal" text-decoration="none" x="565.60888671875" y="754.5">+getLatitude(): double</text></g></g><g transform="translate(-10,-10) scale(1,1)"><g><path fill="none" stroke="none"/><text fill="#000000" stroke="none" font-family="Arial" font-size="13px" font-style="normal" font-weight="normal" text-decoration="none" x="565.60888671875" y="769.5">+setLatitude(latitude: double): void</text></g></g><g transform="translate(-10,-10) scale(1,1)"><g><path fill="none" stroke="none"/><text fill="#000000" stroke="none" font-family="Arial" font-size="13px" font-style="normal" font-weight="normal" text-decoration="none" x="565.60888671875" y="784.5">+toString(): String</text></g></g><g transform="translate(-10,-10) scale(1,1)"><path fill="none" stroke="#000000" d="M 742 598 Q 742 584 742 569" stroke-miterlimit="10"/></g><g transform="translate(-10,-10) scale(1,1)"><path fill="#FFFFFF" stroke="none" d="M 746.209517756016 579.1626748576241 L 742 569 L 737.790482243984 579.1626748576241 L 742 591"/></g><g transform="translate(-10,-10) scale(1,1)"><path fill="none" stroke="#000000" d="M 746.209517756016 579.1626748576241 L 742 569 L 737.790482243984 579.1626748576241 L 742 591 L 746.209517756016 579.1626748576241" stroke-miterlimit="10"/></g><g transform="translate(-10,-10) scale(1,1)"><rect fill="#C0C0C0" stroke="none" x="27" y="239" width="491.9296875" height="145" opacity="0.2"/></g><g transform="translate(-10,-10) scale(1,1)"><rect fill="#ffffff" stroke="none" x="20" y="232" width="491.9296875" height="145"/></g><g transform="translate(-10,-10) scale(1,1)"><path fill="none" stroke="#000000" d="M 20 232 L 511.9296875 232 L 511.9296875 377 L 20 377 L 20 232 Z Z" stroke-miterlimit="10"/></g><g transform="translate(-10,-10) scale(1,1)"><path fill="none" stroke="#000000" d="M 20 272 L 511.9296875 272" stroke-miterlimit="10"/></g><g transform="translate(-10,-10) scale(1,1)"><path fill="none" stroke="#000000" d="M 20 355 L 511.9296875 355" stroke-miterlimit="10"/></g><g transform="translate(-10,-10) scale(1,1)"><g><path fill="none" stroke="none"/><text fill="#000000" stroke="none" font-family="Arial" font-size="13px" font-style="normal" font-weight="bold" text-decoration="none" x="197.31494140625" y="251.5">GeocodeURLGenerator</text></g></g><g transform="translate(-10,-10) scale(1,1)"><g><path fill="none" stroke="none"/><text fill="#000000" stroke="none" font-family="Arial" font-size="13px" font-style="normal" font-weight="normal" text-decoration="none" x="217.21484375" y="266.5">(from MyGMaps)</text></g></g><g transform="translate(-10,-10) scale(1,1)"><g><path fill="none" stroke="none"/><text fill="#000000" stroke="none" font-family="Arial" font-size="13px" font-style="normal" font-weight="normal" text-decoration="none" x="25" y="289.5">+XML: int = 0 {readOnly}</text><path fill="none" stroke="#000000" d="M 25 289.5 L 167.365234375 289.5" stroke-miterlimit="10"/></g></g><g transform="translate(-10,-10) scale(1,1)"><g><path fill="none" stroke="none"/><text fill="#000000" stroke="none" font-family="Arial" font-size="13px" font-style="normal" font-weight="normal" text-decoration="none" x="25" y="304.5">+JSON: int = 1 {readOnly}</text><path fill="none" stroke="#000000" d="M 25 304.5 L 175.30615234375 304.5" stroke-miterlimit="10"/></g></g><g transform="translate(-10,-10) scale(1,1)"><g><path fill="none" stroke="none"/><text fill="#000000" stroke="none" font-family="Arial" font-size="13px" font-style="normal" font-weight="normal" text-decoration="none" x="25" y="319.5">-geocodeURL: String = "http://maps.googleapis.com/maps/api/geocode/" {readOnly}</text><path fill="none" stroke="#000000" d="M 25 319.5 L 507.9296875 319.5" stroke-miterlimit="10"/></g></g><g transform="translate(-10,-10) scale(1,1)"><g><path fill="none" stroke="none"/><text fill="#000000" stroke="none" font-family="Arial" font-size="13px" font-style="normal" font-weight="normal" text-decoration="none" x="25" y="334.5">-RESULT_TYPE: String {readOnly}</text><path fill="none" stroke="#000000" d="M 25 334.5 L 228.02978515625 334.5" stroke-miterlimit="10"/></g></g><g transform="translate(-10,-10) scale(1,1)"><g><path fill="none" stroke="none"/><text fill="#000000" stroke="none" font-family="Arial" font-size="13px" font-style="normal" font-weight="normal" text-decoration="none" x="25" y="349.5">-ADDRESS_QUERY_PREFIX: String = "?address=" {readOnly}</text><path fill="none" stroke="#000000" d="M 25 349.5 L 391.16455078125 349.5" stroke-miterlimit="10"/></g></g><g transform="translate(-10,-10) scale(1,1)"><g><path fill="none" stroke="none"/><text fill="#000000" stroke="none" font-family="Arial" font-size="13px" font-style="normal" font-weight="normal" text-decoration="none" x="25" y="372.5">+generateURL(resultType: int, placeToFind: String): URL</text><path fill="none" stroke="#000000" d="M 25 372.5 L 353.39599609375 372.5" stroke-miterlimit="10"/></g></g><g transform="translate(-10,-10) scale(1,1)"><rect fill="#C0C0C0" stroke="none" x="524.4967041015625" y="121" width="337.40234375" height="87" opacity="0.2"/></g><g transform="translate(-10,-10) scale(1,1)"><rect fill="#ffffff" stroke="none" x="517.4967041015625" y="114" width="337.40234375" height="87"/></g><g transform="translate(-10,-10) scale(1,1)"><path fill="none" stroke="#000000" d="M 517.4967041015625 114 L 854.8990478515625 114 L 854.8990478515625 201 L 517.4967041015625 201 L 517.4967041015625 114 Z Z" stroke-miterlimit="10"/></g><g transform="translate(-10,-10) scale(1,1)"><path fill="none" stroke="#000000" d="M 517.4967041015625 154 L 854.8990478515625 154" stroke-miterlimit="10"/></g><g transform="translate(-10,-10) scale(1,1)"><path fill="none" stroke="#000000" d="M 517.4967041015625 164 L 854.8990478515625 164" stroke-miterlimit="10"/></g><g transform="translate(-10,-10) scale(1,1)"><g><path fill="none" stroke="none"/><text fill="#000000" stroke="none" font-family="Arial" font-size="13px" font-style="italic" font-weight="bold" text-decoration="none" x="665.2474365234375" y="133.5">GMaps</text></g></g><g transform="translate(-10,-10) scale(1,1)"><g><path fill="none" stroke="none"/><text fill="#000000" stroke="none" font-family="Arial" font-size="13px" font-style="normal" font-weight="normal" text-decoration="none" x="637.4478759765625" y="148.5">(from MyGMaps)</text></g></g><g transform="translate(-10,-10) scale(1,1)"><g><path fill="none" stroke="none"/><text fill="#000000" stroke="none" font-family="Arial" font-size="13px" font-style="normal" font-weight="normal" text-decoration="none" x="522.4967041015625" y="181.5">+createGMaps(): GMaps</text><path fill="none" stroke="#000000" d="M 522.4967041015625 181.5 L 665.9029541015625 181.5" stroke-miterlimit="10"/></g></g><g transform="translate(-10,-10) scale(1,1)"><g><path fill="none" stroke="none"/><text fill="#000000" stroke="none" font-family="Arial" font-size="13px" font-style="italic" font-weight="normal" text-decoration="none" x="522.4967041015625" y="196.5">+find(place: String, listener: ResultRetrivedListener): void</text></g></g><g transform="translate(-10,-10) scale(1,1)"><path fill="none" stroke="#000000" d="M 572 407 Q 543 393 543 305 Q 543 217 579 202" stroke-miterlimit="10"/></g><g transform="translate(-10,-10) scale(1,1)"><path fill="none" stroke="#000000" d="M 266 231 Q 266 217 516 181" stroke-miterlimit="10"/></g><g transform="translate(-10,-10) scale(1,1)"><rect fill="#C0C0C0" stroke="none" x="579.9296875" y="269" width="337.40234375" height="85" opacity="0.2"/></g><g transform="translate(-10,-10) scale(1,1)"><rect fill="#ffffff" stroke="none" x="572.9296875" y="262" width="337.40234375" height="85"/></g><g transform="translate(-10,-10) scale(1,1)"><path fill="none" stroke="#000000" d="M 572.9296875 262 L 910.33203125 262 L 910.33203125 347 L 572.9296875 347 L 572.9296875 262 Z Z" stroke-miterlimit="10"/></g><g transform="translate(-10,-10) scale(1,1)"><path fill="none" stroke="#000000" d="M 572.9296875 302 L 910.33203125 302" stroke-miterlimit="10"/></g><g transform="translate(-10,-10) scale(1,1)"><path fill="none" stroke="#000000" d="M 572.9296875 325 L 910.33203125 325" stroke-miterlimit="10"/></g><g transform="translate(-10,-10) scale(1,1)"><g><path fill="none" stroke="none"/><text fill="#000000" stroke="none" font-family="Arial" font-size="13px" font-style="normal" font-weight="bold" text-decoration="none" x="703.344970703125" y="281.5">JSONGMaps</text></g></g><g transform="translate(-10,-10) scale(1,1)"><g><path fill="none" stroke="none"/><text fill="#000000" stroke="none" font-family="Arial" font-size="13px" font-style="normal" font-weight="normal" text-decoration="none" x="692.880859375" y="296.5">(from MyGMaps)</text></g></g><g transform="translate(-10,-10) scale(1,1)"><g><path fill="none" stroke="none"/><text fill="#000000" stroke="none" font-family="Arial" font-size="13px" font-style="normal" font-weight="normal" text-decoration="none" x="577.9296875" y="319.5">-retriver: JSONRetriver</text></g></g><g transform="translate(-10,-10) scale(1,1)"><g><path fill="none" stroke="none"/><text fill="#000000" stroke="none" font-family="Arial" font-size="13px" font-style="normal" font-weight="normal" text-decoration="none" x="577.9296875" y="342.5">+find(place: String, listener: ResultRetrivedListener): void</text></g></g><g transform="translate(-10,-10) scale(1,1)"><path fill="none" stroke="#000000" d="M 742 407 Q 742 393 741 348" stroke-miterlimit="10"/></g><g transform="translate(-10,-10) scale(1,1)"><path fill="none" stroke="#000000" d="M 741 261 Q 742 217 728 202" stroke-miterlimit="10"/></g><g transform="translate(-10,-10) scale(1,1)"><path fill="#FFFFFF" stroke="none" d="M 748.0231373202583 211.1144924079225 L 728 202 L 735.7135767910688 222.60341556849943"/></g><g transform="translate(-10,-10) scale(1,1)"><path fill="none" stroke="#000000" d="M 748.0231373202583 211.1144924079225 L 728 202 L 735.7135767910688 222.60341556849943 L 748.0231373202583 211.1144924079225" stroke-miterlimit="10"/></g><g transform="translate(-10,-10) scale(1,1)"><rect fill="#C0C0C0" stroke="none" x="948.33203125" y="239" width="583.62158203125" height="145" opacity="0.2"/></g><g transform="translate(-10,-10) scale(1,1)"><rect fill="#ffffff" stroke="none" x="941.33203125" y="232" width="583.62158203125" height="145"/></g><g transform="translate(-10,-10) scale(1,1)"><path fill="none" stroke="#000000" d="M 941.33203125 232 L 1524.95361328125 232 L 1524.95361328125 377 L 941.33203125 377 L 941.33203125 232 Z Z" stroke-miterlimit="10"/></g><g transform="translate(-10,-10) scale(1,1)"><path fill="none" stroke="#000000" d="M 941.33203125 272 L 1524.95361328125 272" stroke-miterlimit="10"/></g><g transform="translate(-10,-10) scale(1,1)"><path fill="none" stroke="#000000" d="M 941.33203125 355 L 1524.95361328125 355" stroke-miterlimit="10"/></g><g transform="translate(-10,-10) scale(1,1)"><g><path fill="none" stroke="none"/><text fill="#000000" stroke="none" font-family="Arial" font-size="13px" font-style="normal" font-weight="bold" text-decoration="none" x="1198.827392578125" y="251.5">XMLGMaps</text></g></g><g transform="translate(-10,-10) scale(1,1)"><g><path fill="none" stroke="none"/><text fill="#000000" stroke="none" font-family="Arial" font-size="13px" font-style="normal" font-weight="normal" text-decoration="none" x="1184.392822265625" y="266.5">(from MyGMaps)</text></g></g><g transform="translate(-10,-10) scale(1,1)"><g><path fill="none" stroke="none"/><text fill="#000000" stroke="none" font-family="Arial" font-size="13px" font-style="normal" font-weight="normal" text-decoration="none" x="946.33203125" y="289.5">-QUERY_FORMATTED: String = "/GeocodeResponse/result/formatted_address/text()" {readOnly}</text><path fill="none" stroke="#000000" d="M 946.33203125 289.5 L 1510.81640625 289.5" stroke-miterlimit="10"/></g></g><g transform="translate(-10,-10) scale(1,1)"><g><path fill="none" stroke="none"/><text fill="#000000" stroke="none" font-family="Arial" font-size="13px" font-style="normal" font-weight="normal" text-decoration="none" x="946.33203125" y="304.5">-QUERY_LATITUDE: String = "/GeocodeResponse/result/geometry/location/lat/text()" {readOnly}</text><path fill="none" stroke="#000000" d="M 946.33203125 304.5 L 1504.33544921875 304.5" stroke-miterlimit="10"/></g></g><g transform="translate(-10,-10) scale(1,1)"><g><path fill="none" stroke="none"/><text fill="#000000" stroke="none" font-family="Arial" font-size="13px" font-style="normal" font-weight="normal" text-decoration="none" x="946.33203125" y="319.5">-QUERY_LONGITUDE: String = "/GeocodeResponse/result/geometry/location/lng/text()" {readOnly}</text><path fill="none" stroke="#000000" d="M 946.33203125 319.5 L 1520.95361328125 319.5" stroke-miterlimit="10"/></g></g><g transform="translate(-10,-10) scale(1,1)"><g><path fill="none" stroke="none"/><text fill="#000000" stroke="none" font-family="Arial" font-size="13px" font-style="normal" font-weight="normal" text-decoration="none" x="946.33203125" y="334.5">-xpathFactory: XPathFactory {readOnly}</text><path fill="none" stroke="#000000" d="M 946.33203125 334.5 L 1176.828125 334.5" stroke-miterlimit="10"/></g></g><g transform="translate(-10,-10) scale(1,1)"><g><path fill="none" stroke="none"/><text fill="#000000" stroke="none" font-family="Arial" font-size="13px" font-style="normal" font-weight="normal" text-decoration="none" x="946.33203125" y="349.5">-retriver: XMLRetriver</text></g></g><g transform="translate(-10,-10) scale(1,1)"><g><path fill="none" stroke="none"/><text fill="#000000" stroke="none" font-family="Arial" font-size="13px" font-style="normal" font-weight="normal" text-decoration="none" x="946.33203125" y="372.5">+find(place: String, listener: ResultRetrivedListener): void</text></g></g><g transform="translate(-10,-10) scale(1,1)"><path fill="none" stroke="#000000" d="M 953 447 Q 1234 393 1234 378" stroke-miterlimit="10"/></g><g transform="translate(-10,-10) scale(1,1)"><path fill="none" stroke="#000000" d="M 1234 231 Q 1234 217 856 176" stroke-miterlimit="10"/></g><g transform="translate(-10,-10) scale(1,1)"><path fill="#FFFFFF" stroke="none" d="M 877.1146838109025 169.82180223968086 L 856 176 L 875.2989816371322 186.56169057346577"/></g><g transform="translate(-10,-10) scale(1,1)"><path fill="none" stroke="#000000" d="M 877.1146838109025 169.82180223968086 L 856 176 L 875.2989816371322 186.56169057346577 L 877.1146838109025 169.82180223968086" stroke-miterlimit="10"/></g><g transform="translate(-10,-10) scale(1,1)"><path fill="#C0C0C0" stroke="none" d="M 681.6978759765625 38.5 C 681.6978759765625 32.1487248 686.8466007765625 27 693.1978759765625 27 C 699.5491511765625 27 704.6978759765625 32.1487248 704.6978759765625 38.5 C 704.6978759765625 44.8512752 699.5491511765625 50 693.1978759765625 50 C 686.8466007765625 50 681.6978759765625 44.8512752 681.6978759765625 38.5 Z" opacity="0.2"/></g><g transform="translate(-10,-10) scale(1,1)"><path fill="#ffffff" stroke="none" d="M 674.6978759765625 31.5 C 674.6978759765625 25.1487248 679.8466007765625 20 686.1978759765625 20 C 692.5491511765625 20 697.6978759765625 25.1487248 697.6978759765625 31.5 C 697.6978759765625 37.8512752 692.5491511765625 43 686.1978759765625 43 C 679.8466007765625 43 674.6978759765625 37.8512752 674.6978759765625 31.5 Z"/></g><g transform="translate(-10,-10) scale(1,1)"><path fill="none" stroke="#000000" d="M 674.6978759765625 31.5 C 674.6978759765625 25.1487248 679.8466007765625 20 686.1978759765625 20 C 692.5491511765625 20 697.6978759765625 25.1487248 697.6978759765625 31.5 C 697.6978759765625 37.8512752 692.5491511765625 43 686.1978759765625 43 C 679.8466007765625 43 674.6978759765625 37.8512752 674.6978759765625 31.5 Z" stroke-miterlimit="10"/></g><g transform="translate(-10,-10) scale(1,1)"><g><path fill="none" stroke="none"/><text fill="#000000" stroke="none" font-family="Arial" font-size="13px" font-style="normal" font-weight="bold" text-decoration="none" x="620.4456787109375" y="62.5">ResultRetrivedListener</text></g></g><g transform="translate(-10,-10) scale(1,1)"><g><path fill="none" stroke="none"/><text fill="#000000" stroke="none" font-family="Arial" font-size="13px" font-style="normal" font-weight="normal" text-decoration="none" x="637.4478759765625" y="77.5">(from MyGMaps)</text></g></g><g transform="translate(-10,-10) scale(1,1)"><path fill="none" stroke="#000000" d="M 687 113 Q 687 99 687 84" stroke-miterlimit="10"/></g><g transform="translate(-10,-10) scale(1,1)"><rect fill="#C0C0C0" stroke="none" x="149.779541015625" y="430" width="246.37060546875" height="130" opacity="0.2"/></g><g transform="translate(-10,-10) scale(1,1)"><rect fill="#ffffff" stroke="none" x="142.779541015625" y="423" width="246.37060546875" height="130"/></g><g transform="translate(-10,-10) scale(1,1)"><path fill="none" stroke="#000000" d="M 142.779541015625 423 L 389.150146484375 423 L 389.150146484375 553 L 142.779541015625 553 L 142.779541015625 423 Z Z" stroke-miterlimit="10"/></g><g transform="translate(-10,-10) scale(1,1)"><path fill="none" stroke="#000000" d="M 142.779541015625 463 L 389.150146484375 463" stroke-miterlimit="10"/></g><g transform="translate(-10,-10) scale(1,1)"><path fill="none" stroke="#000000" d="M 142.779541015625 486 L 389.150146484375 486" stroke-miterlimit="10"/></g><g transform="translate(-10,-10) scale(1,1)"><g><path fill="none" stroke="none"/><text fill="#000000" stroke="none" font-family="Arial" font-size="13px" font-style="normal" font-weight="bold" text-decoration="none" x="230.916259765625" y="442.5">InvalidPlace</text></g></g><g transform="translate(-10,-10) scale(1,1)"><g><path fill="none" stroke="none"/><text fill="#000000" stroke="none" font-family="Arial" font-size="13px" font-style="normal" font-weight="normal" text-decoration="none" x="217.21484375" y="457.5">(from MyGMaps)</text></g></g><g transform="translate(-10,-10) scale(1,1)"><g><path fill="none" stroke="none"/><text fill="#000000" stroke="none" font-family="Arial" font-size="13px" font-style="normal" font-weight="normal" text-decoration="none" x="147.779541015625" y="480.5">-place: String</text></g></g><g transform="translate(-10,-10) scale(1,1)"><g><path fill="none" stroke="none"/><text fill="#000000" stroke="none" font-family="Arial" font-size="13px" font-style="normal" font-weight="normal" text-decoration="none" x="147.779541015625" y="503.5">«constructor»+InvalidPlace(place: String)</text></g></g><g transform="translate(-10,-10) scale(1,1)"><g><path fill="none" stroke="none"/><text fill="#000000" stroke="none" font-family="Arial" font-size="13px" font-style="normal" font-weight="normal" text-decoration="none" x="147.779541015625" y="518.5">+getPlace(): String</text></g></g><g transform="translate(-10,-10) scale(1,1)"><g><path fill="none" stroke="none"/><text fill="#000000" stroke="none" font-family="Arial" font-size="13px" font-style="normal" font-weight="normal" text-decoration="none" x="147.779541015625" y="533.5">+setPlace(place: String): void</text></g></g><g transform="translate(-10,-10) scale(1,1)"><g><path fill="none" stroke="none"/><text fill="#000000" stroke="none" font-family="Arial" font-size="13px" font-style="normal" font-weight="normal" text-decoration="none" x="147.779541015625" y="548.5">+toString(): String</text></g></g><g transform="translate(-10,-10) scale(1,1)"><path fill="none" stroke="#000000" d="M 266 422 Q 266 393 266 378" stroke-miterlimit="10"/></g></g></svg>