<svg version="1.1" xmlns="http://www.w3.org/2000/svg" xmlns:xlink="http://www.w3.org/1999/xlink" width="1151.43603515625" height="305"><defs/><g><g transform="translate(-70,-54) scale(1,1)"><rect fill="#C0C0C0" stroke="none" x="87" y="271" width="355.43603515625" height="72" opacity="0.2"/></g><g transform="translate(-70,-54) scale(1,1)"><rect fill="#ffffff" stroke="none" x="80" y="264" width="355.43603515625" height="72"/></g><g transform="translate(-70,-54) scale(1,1)"><path fill="none" stroke="#000000" d="M 80 264 L 435.43603515625 264 L 435.43603515625 336 L 80 336 L 80 264 Z Z" stroke-miterlimit="10"/></g><g transform="translate(-70,-54) scale(1,1)"><path fill="none" stroke="#000000" d="M 80 304 L 435.43603515625 304" stroke-miterlimit="10"/></g><g transform="translate(-70,-54) scale(1,1)"><path fill="none" stroke="#000000" d="M 80 314 L 435.43603515625 314" stroke-miterlimit="10"/></g><g transform="translate(-70,-54) scale(1,1)"><g><path fill="none" stroke="none"/><text fill="#000000" stroke="none" font-family="Arial" font-size="13px" font-style="normal" font-weight="bold" text-decoration="none" x="216.8994140625" y="283.5">ImageRetriver</text></g></g><g transform="translate(-70,-54) scale(1,1)"><g><path fill="none" stroke="none"/><text fill="#000000" stroke="none" font-family="Arial" font-size="13px" font-style="normal" font-weight="normal" text-decoration="none" x="212.947998046875" y="298.5">(from MyHTTP)</text></g></g><g transform="translate(-70,-54) scale(1,1)"><g><path fill="none" stroke="none"/><text fill="#000000" stroke="none" font-family="Arial" font-size="13px" font-style="normal" font-weight="normal" text-decoration="none" x="85" y="331.5">+retriveResult(url: URL, listener: DataRetrivedListener): void</text></g></g><g transform="translate(-70,-54) scale(1,1)"><rect fill="#C0C0C0" stroke="none" x="463" y="271" width="355.43603515625" height="72" opacity="0.2"/></g><g transform="translate(-70,-54) scale(1,1)"><rect fill="#ffffff" stroke="none" x="456" y="264" width="355.43603515625" height="72"/></g><g transform="translate(-70,-54) scale(1,1)"><path fill="none" stroke="#000000" d="M 456 264 L 811.43603515625 264 L 811.43603515625 336 L 456 336 L 456 264 Z Z" stroke-miterlimit="10"/></g><g transform="translate(-70,-54) scale(1,1)"><path fill="none" stroke="#000000" d="M 456 304 L 811.43603515625 304" stroke-miterlimit="10"/></g><g transform="translate(-70,-54) scale(1,1)"><path fill="none" stroke="#000000" d="M 456 314 L 811.43603515625 314" stroke-miterlimit="10"/></g><g transform="translate(-70,-54) scale(1,1)"><g><path fill="none" stroke="none"/><text fill="#000000" stroke="none" font-family="Arial" font-size="13px" font-style="normal" font-weight="bold" text-decoration="none" x="593.62939453125" y="283.5">JSONRetriver</text></g></g><g transform="translate(-70,-54) scale(1,1)"><g><path fill="none" stroke="none"/><text fill="#000000" stroke="none" font-family="Arial" font-size="13px" font-style="normal" font-weight="normal" text-decoration="none" x="588.947998046875" y="298.5">(from MyHTTP)</text></g></g><g transform="translate(-70,-54) scale(1,1)"><g><path fill="none" stroke="none"/><text fill="#000000" stroke="none" font-family="Arial" font-size="13px" font-style="normal" font-weight="normal" text-decoration="none" x="461" y="331.5">+retriveResult(url: URL, listener: DataRetrivedListener): void</text></g></g><g transform="translate(-70,-54) scale(1,1)"><rect fill="#C0C0C0" stroke="none" x="863" y="271" width="355.43603515625" height="85" opacity="0.2"/></g><g transform="translate(-70,-54) scale(1,1)"><rect fill="#ffffff" stroke="none" x="856" y="264" width="355.43603515625" height="85"/></g><g transform="translate(-70,-54) scale(1,1)"><path fill="none" stroke="#000000" d="M 856 264 L 1211.43603515625 264 L 1211.43603515625 349 L 856 349 L 856 264 Z Z" stroke-miterlimit="10"/></g><g transform="translate(-70,-54) scale(1,1)"><path fill="none" stroke="#000000" d="M 856 304 L 1211.43603515625 304" stroke-miterlimit="10"/></g><g transform="translate(-70,-54) scale(1,1)"><path fill="none" stroke="#000000" d="M 856 327 L 1211.43603515625 327" stroke-miterlimit="10"/></g><g transform="translate(-70,-54) scale(1,1)"><g><path fill="none" stroke="none"/><text fill="#000000" stroke="none" font-family="Arial" font-size="13px" font-style="normal" font-weight="bold" text-decoration="none" x="997.599853515625" y="283.5">XMLRetriver</text></g></g><g transform="translate(-70,-54) scale(1,1)"><g><path fill="none" stroke="none"/><text fill="#000000" stroke="none" font-family="Arial" font-size="13px" font-style="normal" font-weight="normal" text-decoration="none" x="988.947998046875" y="298.5">(from MyHTTP)</text></g></g><g transform="translate(-70,-54) scale(1,1)"><g><path fill="none" stroke="none"/><text fill="#000000" stroke="none" font-family="Arial" font-size="13px" font-style="normal" font-weight="normal" text-decoration="none" x="861" y="321.5">-docBuilderFactory: DocumentBuilderFactory {readOnly}</text><path fill="none" stroke="#000000" d="M 861 321.5 L 1185.42236328125 321.5" stroke-miterlimit="10"/></g></g><g transform="translate(-70,-54) scale(1,1)"><g><path fill="none" stroke="none"/><text fill="#000000" stroke="none" font-family="Arial" font-size="13px" font-style="normal" font-weight="normal" text-decoration="none" x="861" y="344.5">+retriveResult(url: URL, listener: DataRetrivedListener): void</text></g></g><g transform="translate(-70,-54) scale(1,1)"><path fill="#C0C0C0" stroke="none" d="M 953.384033203125 82.5 C 953.384033203125 76.1487248 958.532758003125 71 964.884033203125 71 C 971.235308403125 71 976.384033203125 76.1487248 976.384033203125 82.5 C 976.384033203125 88.8512752 971.235308403125 94 964.884033203125 94 C 958.532758003125 94 953.384033203125 88.8512752 953.384033203125 82.5 Z" opacity="0.2"/></g><g transform="translate(-70,-54) scale(1,1)"><path fill="#ffffff" stroke="none" d="M 946.384033203125 75.5 C 946.384033203125 69.1487248 951.532758003125 64 957.884033203125 64 C 964.235308403125 64 969.384033203125 69.1487248 969.384033203125 75.5 C 969.384033203125 81.8512752 964.235308403125 87 957.884033203125 87 C 951.532758003125 87 946.384033203125 81.8512752 946.384033203125 75.5 Z"/></g><g transform="translate(-70,-54) scale(1,1)"><path fill="none" stroke="#000000" d="M 946.384033203125 75.5 C 946.384033203125 69.1487248 951.532758003125 64 957.884033203125 64 C 964.235308403125 64 969.384033203125 69.1487248 969.384033203125 75.5 C 969.384033203125 81.8512752 964.235308403125 87 957.884033203125 87 C 951.532758003125 87 946.384033203125 81.8512752 946.384033203125 75.5 Z" stroke-miterlimit="10"/></g><g transform="translate(-70,-54) scale(1,1)"><g><path fill="none" stroke="none"/><text fill="#000000" stroke="none" font-family="Arial" font-size="13px" font-style="normal" font-weight="bold" text-decoration="none" x="896.825927734375" y="106.5">DataRetrivedListener</text></g></g><g transform="translate(-70,-54) scale(1,1)"><g><path fill="none" stroke="none"/><text fill="#000000" stroke="none" font-family="Arial" font-size="13px" font-style="normal" font-weight="normal" text-decoration="none" x="913.114013671875" y="121.5">(from MyHTTP)</text></g></g><g transform="translate(-70,-54) scale(1,1)"><rect fill="#C0C0C0" stroke="none" x="431" y="71" width="352.53515625" height="57" opacity="0.2"/></g><g transform="translate(-70,-54) scale(1,1)"><rect fill="#ffffff" stroke="none" x="424" y="64" width="352.53515625" height="57"/></g><g transform="translate(-70,-54) scale(1,1)"><path fill="none" stroke="#000000" d="M 424 64 L 776.53515625 64 L 776.53515625 121 L 424 121 L 424 64 Z Z" stroke-miterlimit="10"/></g><g transform="translate(-70,-54) scale(1,1)"><path fill="none" stroke="#000000" d="M 424 89 L 776.53515625 89" stroke-miterlimit="10"/></g><g transform="translate(-70,-54) scale(1,1)"><path fill="none" stroke="#000000" d="M 424 99 L 776.53515625 99" stroke-miterlimit="10"/></g><g transform="translate(-70,-54) scale(1,1)"><g><path fill="none" stroke="none"/><text fill="#000000" stroke="none" font-family="Arial" font-size="13px" font-style="normal" font-weight="bold" text-decoration="none" x="563.784423828125" y="83.5">DataRetriver</text></g></g><g transform="translate(-70,-54) scale(1,1)"><g><path fill="none" stroke="none"/><text fill="#000000" stroke="none" font-family="Arial" font-size="13px" font-style="normal" font-weight="normal" text-decoration="none" x="429" y="116.5">+retriveResult(url: URL, listener: DataRetriverListener): void</text></g></g><g transform="translate(-70,-54) scale(1,1)"><path fill="none" stroke="#000000" d="M 318 263 L 551 122" stroke-miterlimit="10"/></g><g transform="translate(-70,-54) scale(1,1)"><path fill="none" stroke="#000000" d="M 544.4847977490235 130.86296449439303 L 551 122 L 540.1259940121317 123.6601186029336" stroke-miterlimit="10"/></g><g transform="translate(-70,-54) scale(1,1)"><path fill="none" stroke="#000000" d="M 627 263 L 605 122" stroke-miterlimit="10"/></g><g transform="translate(-70,-54) scale(1,1)"><path fill="none" stroke="#000000" d="M 610.7259043021089 131.39223189253175 L 605 122 L 602.4075148987606 132.6901366221322" stroke-miterlimit="10"/></g><g transform="translate(-70,-54) scale(1,1)"><path fill="none" stroke="#000000" d="M 946 263 L 661 122" stroke-miterlimit="10"/></g><g transform="translate(-70,-54) scale(1,1)"><path fill="none" stroke="#000000" d="M 671.9755188042011 122.7334759564081 L 661 122 L 668.2422179508776 130.2795095961045" stroke-miterlimit="10"/></g><g transform="translate(-70,-54) scale(1,1)"><path fill="none" stroke="#000000" d="M 778 93 L 887 94" stroke-miterlimit="10"/></g></g></svg>