<svg version="1.1" xmlns="http://www.w3.org/2000/svg" xmlns:xlink="http://www.w3.org/1999/xlink" width="2088.26318359375" height="744"><defs/><g><g transform="translate(-10,-10) scale(1,1)"><rect fill="#C0C0C0" stroke="none" x="27" y="272.5" width="450.13671875" height="100" opacity="0.2"/></g><g transform="translate(-10,-10) scale(1,1)"><rect fill="#ffffff" stroke="none" x="20" y="265.5" width="450.13671875" height="100"/></g><g transform="translate(-10,-10) scale(1,1)"><path fill="none" stroke="#000000" d="M 20 265.5 L 470.13671875 265.5 L 470.13671875 365.5 L 20 365.5 L 20 265.5 Z Z" stroke-miterlimit="10"/></g><g transform="translate(-10,-10) scale(1,1)"><path fill="none" stroke="#000000" d="M 20 305.5 L 470.13671875 305.5" stroke-miterlimit="10"/></g><g transform="translate(-10,-10) scale(1,1)"><path fill="none" stroke="#000000" d="M 20 328.5 L 470.13671875 328.5" stroke-miterlimit="10"/></g><g transform="translate(-10,-10) scale(1,1)"><g><path fill="none" stroke="none"/><text fill="#000000" stroke="none" font-family="Arial" font-size="13px" font-style="normal" font-weight="bold" text-decoration="none" x="203.16748046875" y="285">JSONWeather</text></g></g><g transform="translate(-10,-10) scale(1,1)"><g><path fill="none" stroke="none"/><text fill="#000000" stroke="none" font-family="Arial" font-size="13px" font-style="normal" font-weight="normal" text-decoration="none" x="192.703369140625" y="300">(from MyWeather)</text></g></g><g transform="translate(-10,-10) scale(1,1)"><g><path fill="none" stroke="none"/><text fill="#000000" stroke="none" font-family="Arial" font-size="13px" font-style="normal" font-weight="normal" text-decoration="none" x="25" y="323">-retriver: JSONRetriver</text></g></g><g transform="translate(-10,-10) scale(1,1)"><g><path fill="none" stroke="none"/><text fill="#000000" stroke="none" font-family="Arial" font-size="13px" font-style="normal" font-weight="normal" text-decoration="none" x="25" y="346">+getActualWeather(place: Coordinate, listener: WeatherResultListener): void</text></g></g><g transform="translate(-10,-10) scale(1,1)"><g><path fill="none" stroke="none"/><text fill="#000000" stroke="none" font-family="Arial" font-size="13px" font-style="normal" font-weight="normal" text-decoration="none" x="25" y="361">+getForecast(place: Coordinate, listener: WeatherResultListener): void</text></g></g><g transform="translate(-10,-10) scale(1,1)"><rect fill="#C0C0C0" stroke="none" x="1444.8671875" y="220" width="468.80517578125" height="205" opacity="0.2"/></g><g transform="translate(-10,-10) scale(1,1)"><rect fill="#ffffff" stroke="none" x="1437.8671875" y="213" width="468.80517578125" height="205"/></g><g transform="translate(-10,-10) scale(1,1)"><path fill="none" stroke="#000000" d="M 1437.8671875 213 L 1906.67236328125 213 L 1906.67236328125 418 L 1437.8671875 418 L 1437.8671875 213 Z Z" stroke-miterlimit="10"/></g><g transform="translate(-10,-10) scale(1,1)"><path fill="none" stroke="#000000" d="M 1437.8671875 253 L 1906.67236328125 253" stroke-miterlimit="10"/></g><g transform="translate(-10,-10) scale(1,1)"><path fill="none" stroke="#000000" d="M 1437.8671875 381 L 1906.67236328125 381" stroke-miterlimit="10"/></g><g transform="translate(-10,-10) scale(1,1)"><g><path fill="none" stroke="none"/><text fill="#000000" stroke="none" font-family="Arial" font-size="13px" font-style="normal" font-weight="bold" text-decoration="none" x="1576.889892578125" y="232.5">OpenWeatherMapURLGenerator</text></g></g><g transform="translate(-10,-10) scale(1,1)"><g><path fill="none" stroke="none"/><text fill="#000000" stroke="none" font-family="Arial" font-size="13px" font-style="normal" font-weight="normal" text-decoration="none" x="1619.90478515625" y="247.5">(from MyWeather)</text></g></g><g transform="translate(-10,-10) scale(1,1)"><g><path fill="none" stroke="none"/><text fill="#000000" stroke="none" font-family="Arial" font-size="13px" font-style="normal" font-weight="normal" text-decoration="none" x="1442.8671875" y="270.5">+XML: int = 0 {readOnly}</text><path fill="none" stroke="#000000" d="M 1442.8671875 270.5 L 1585.232421875 270.5" stroke-miterlimit="10"/></g></g><g transform="translate(-10,-10) scale(1,1)"><g><path fill="none" stroke="none"/><text fill="#000000" stroke="none" font-family="Arial" font-size="13px" font-style="normal" font-weight="normal" text-decoration="none" x="1442.8671875" y="285.5">+JSON: int = 1 {readOnly}</text><path fill="none" stroke="#000000" d="M 1442.8671875 285.5 L 1593.17333984375 285.5" stroke-miterlimit="10"/></g></g><g transform="translate(-10,-10) scale(1,1)"><g><path fill="none" stroke="none"/><text fill="#000000" stroke="none" font-family="Arial" font-size="13px" font-style="normal" font-weight="normal" text-decoration="none" x="1442.8671875" y="300.5">+ACTUAL_WEATHER: int = 0 {readOnly}</text><path fill="none" stroke="#000000" d="M 1442.8671875 300.5 L 1682.021484375 300.5" stroke-miterlimit="10"/></g></g><g transform="translate(-10,-10) scale(1,1)"><g><path fill="none" stroke="none"/><text fill="#000000" stroke="none" font-family="Arial" font-size="13px" font-style="normal" font-weight="normal" text-decoration="none" x="1442.8671875" y="315.5">+FORECAST: int = 1 {readOnly}</text><path fill="none" stroke="#000000" d="M 1442.8671875 315.5 L 1629.28515625 315.5" stroke-miterlimit="10"/></g></g><g transform="translate(-10,-10) scale(1,1)"><g><path fill="none" stroke="none"/><text fill="#000000" stroke="none" font-family="Arial" font-size="13px" font-style="normal" font-weight="normal" text-decoration="none" x="1442.8671875" y="330.5">-resultTypes: String[*] {readOnly}</text><path fill="none" stroke="#000000" d="M 1442.8671875 330.5 L 1632.89697265625 330.5" stroke-miterlimit="10"/></g></g><g transform="translate(-10,-10) scale(1,1)"><g><path fill="none" stroke="none"/><text fill="#000000" stroke="none" font-family="Arial" font-size="13px" font-style="normal" font-weight="normal" text-decoration="none" x="1442.8671875" y="345.5">-forecastType: String[*] {readOnly}</text><path fill="none" stroke="#000000" d="M 1442.8671875 345.5 L 1640.8505859375 345.5" stroke-miterlimit="10"/></g></g><g transform="translate(-10,-10) scale(1,1)"><g><path fill="none" stroke="none"/><text fill="#000000" stroke="none" font-family="Arial" font-size="13px" font-style="normal" font-weight="normal" text-decoration="none" x="1442.8671875" y="360.5">-openWeatherUrl: String = "http://api.openweathermap.org/data/2.5/" {readOnly}</text><path fill="none" stroke="#000000" d="M 1442.8671875 360.5 L 1902.67236328125 360.5" stroke-miterlimit="10"/></g></g><g transform="translate(-10,-10) scale(1,1)"><g><path fill="none" stroke="none"/><text fill="#000000" stroke="none" font-family="Arial" font-size="13px" font-style="normal" font-weight="normal" text-decoration="none" x="1442.8671875" y="375.5">-openWeatherIconUrl: String = "http://openweathermap.org/img/w/" {readOnly}</text><path fill="none" stroke="#000000" d="M 1442.8671875 375.5 L 1893.24609375 375.5" stroke-miterlimit="10"/></g></g><g transform="translate(-10,-10) scale(1,1)"><g><path fill="none" stroke="none"/><text fill="#000000" stroke="none" font-family="Arial" font-size="13px" font-style="normal" font-weight="normal" text-decoration="none" x="1442.8671875" y="398.5">+generateURL(coordinate: Coordinate, request: int, resultType: int): URL</text><path fill="none" stroke="#000000" d="M 1442.8671875 398.5 L 1861.609375 398.5" stroke-miterlimit="10"/></g></g><g transform="translate(-10,-10) scale(1,1)"><g><path fill="none" stroke="none"/><text fill="#000000" stroke="none" font-family="Arial" font-size="13px" font-style="normal" font-weight="normal" text-decoration="none" x="1442.8671875" y="413.5">+generateIconURL(iconId: String): URL</text><path fill="none" stroke="#000000" d="M 1442.8671875 413.5 L 1670.11962890625 413.5" stroke-miterlimit="10"/></g></g><g transform="translate(-10,-10) scale(1,1)"><rect fill="#C0C0C0" stroke="none" x="417.80322265625" y="516" width="447.26123046875" height="235" opacity="0.2"/></g><g transform="translate(-10,-10) scale(1,1)"><rect fill="#ffffff" stroke="none" x="410.80322265625" y="509" width="447.26123046875" height="235"/></g><g transform="translate(-10,-10) scale(1,1)"><path fill="none" stroke="#000000" d="M 410.80322265625 509 L 858.064453125 509 L 858.064453125 744 L 410.80322265625 744 L 410.80322265625 509 Z Z" stroke-miterlimit="10"/></g><g transform="translate(-10,-10) scale(1,1)"><path fill="none" stroke="#000000" d="M 410.80322265625 549 L 858.064453125 549" stroke-miterlimit="10"/></g><g transform="translate(-10,-10) scale(1,1)"><path fill="none" stroke="#000000" d="M 410.80322265625 602 L 858.064453125 602" stroke-miterlimit="10"/></g><g transform="translate(-10,-10) scale(1,1)"><g><path fill="none" stroke="none"/><text fill="#000000" stroke="none" font-family="Arial" font-size="13px" font-style="normal" font-weight="bold" text-decoration="none" x="597.223876953125" y="528.5">Temperature</text></g></g><g transform="translate(-10,-10) scale(1,1)"><g><path fill="none" stroke="none"/><text fill="#000000" stroke="none" font-family="Arial" font-size="13px" font-style="normal" font-weight="normal" text-decoration="none" x="582.06884765625" y="543.5">(from MyWeather)</text></g></g><g transform="translate(-10,-10) scale(1,1)"><g><path fill="none" stroke="none"/><text fill="#000000" stroke="none" font-family="Arial" font-size="13px" font-style="normal" font-weight="normal" text-decoration="none" x="415.80322265625" y="566.5">-temperature: double</text></g></g><g transform="translate(-10,-10) scale(1,1)"><g><path fill="none" stroke="none"/><text fill="#000000" stroke="none" font-family="Arial" font-size="13px" font-style="normal" font-weight="normal" text-decoration="none" x="415.80322265625" y="581.5">-min: double</text></g></g><g transform="translate(-10,-10) scale(1,1)"><g><path fill="none" stroke="none"/><text fill="#000000" stroke="none" font-family="Arial" font-size="13px" font-style="normal" font-weight="normal" text-decoration="none" x="415.80322265625" y="596.5">-max: double</text></g></g><g transform="translate(-10,-10) scale(1,1)"><g><path fill="none" stroke="none"/><text fill="#000000" stroke="none" font-family="Arial" font-size="13px" font-style="normal" font-weight="normal" text-decoration="none" x="415.80322265625" y="619.5">«constructor»+Temperature(temperature: double, min: double, max: double)</text></g></g><g transform="translate(-10,-10) scale(1,1)"><g><path fill="none" stroke="none"/><text fill="#000000" stroke="none" font-family="Arial" font-size="13px" font-style="normal" font-weight="normal" text-decoration="none" x="415.80322265625" y="634.5">«constructor»+Temperature(temperature: String, min: String, max: String)</text></g></g><g transform="translate(-10,-10) scale(1,1)"><g><path fill="none" stroke="none"/><text fill="#000000" stroke="none" font-family="Arial" font-size="13px" font-style="normal" font-weight="normal" text-decoration="none" x="415.80322265625" y="649.5">«constructor»+Temperature(temperature: String)</text></g></g><g transform="translate(-10,-10) scale(1,1)"><g><path fill="none" stroke="none"/><text fill="#000000" stroke="none" font-family="Arial" font-size="13px" font-style="normal" font-weight="normal" text-decoration="none" x="415.80322265625" y="664.5">+getTemperature(): double</text></g></g><g transform="translate(-10,-10) scale(1,1)"><g><path fill="none" stroke="none"/><text fill="#000000" stroke="none" font-family="Arial" font-size="13px" font-style="normal" font-weight="normal" text-decoration="none" x="415.80322265625" y="679.5">+setTemperature(temperature: double): void</text></g></g><g transform="translate(-10,-10) scale(1,1)"><g><path fill="none" stroke="none"/><text fill="#000000" stroke="none" font-family="Arial" font-size="13px" font-style="normal" font-weight="normal" text-decoration="none" x="415.80322265625" y="694.5">+getMax(): double</text></g></g><g transform="translate(-10,-10) scale(1,1)"><g><path fill="none" stroke="none"/><text fill="#000000" stroke="none" font-family="Arial" font-size="13px" font-style="normal" font-weight="normal" text-decoration="none" x="415.80322265625" y="709.5">+setMax(max: double): void</text></g></g><g transform="translate(-10,-10) scale(1,1)"><g><path fill="none" stroke="none"/><text fill="#000000" stroke="none" font-family="Arial" font-size="13px" font-style="normal" font-weight="normal" text-decoration="none" x="415.80322265625" y="724.5">+getMin(): double</text></g></g><g transform="translate(-10,-10) scale(1,1)"><g><path fill="none" stroke="none"/><text fill="#000000" stroke="none" font-family="Arial" font-size="13px" font-style="normal" font-weight="normal" text-decoration="none" x="415.80322265625" y="739.5">+setMin(min: double): void</text></g></g><g transform="translate(-10,-10) scale(1,1)"><rect fill="#C0C0C0" stroke="none" x="884.730712890625" y="27" width="450.13671875" height="102" opacity="0.2"/></g><g transform="translate(-10,-10) scale(1,1)"><rect fill="#ffffff" stroke="none" x="877.730712890625" y="20" width="450.13671875" height="102"/></g><g transform="translate(-10,-10) scale(1,1)"><path fill="none" stroke="#000000" d="M 877.730712890625 20 L 1327.867431640625 20 L 1327.867431640625 122 L 877.730712890625 122 L 877.730712890625 20 Z Z" stroke-miterlimit="10"/></g><g transform="translate(-10,-10) scale(1,1)"><path fill="none" stroke="#000000" d="M 877.730712890625 60 L 1327.867431640625 60" stroke-miterlimit="10"/></g><g transform="translate(-10,-10) scale(1,1)"><path fill="none" stroke="#000000" d="M 877.730712890625 70 L 1327.867431640625 70" stroke-miterlimit="10"/></g><g transform="translate(-10,-10) scale(1,1)"><g><path fill="none" stroke="none"/><text fill="#000000" stroke="none" font-family="Arial" font-size="13px" font-style="italic" font-weight="bold" text-decoration="none" x="1078.233642578125" y="39.5">Weather</text></g></g><g transform="translate(-10,-10) scale(1,1)"><g><path fill="none" stroke="none"/><text fill="#000000" stroke="none" font-family="Arial" font-size="13px" font-style="normal" font-weight="normal" text-decoration="none" x="1050.43408203125" y="54.5">(from MyWeather)</text></g></g><g transform="translate(-10,-10) scale(1,1)"><g><path fill="none" stroke="none"/><text fill="#000000" stroke="none" font-family="Arial" font-size="13px" font-style="normal" font-weight="normal" text-decoration="none" x="882.730712890625" y="87.5">+createWeather(): Weather</text><path fill="none" stroke="#000000" d="M 882.730712890625 87.5 L 1040.596923828125 87.5" stroke-miterlimit="10"/></g></g><g transform="translate(-10,-10) scale(1,1)"><g><path fill="none" stroke="none"/><text fill="#000000" stroke="none" font-family="Arial" font-size="13px" font-style="italic" font-weight="normal" text-decoration="none" x="882.730712890625" y="102.5">+getActualWeather(place: Coordinate, listener: WeatherResultListener): void</text></g></g><g transform="translate(-10,-10) scale(1,1)"><g><path fill="none" stroke="none"/><text fill="#000000" stroke="none" font-family="Arial" font-size="13px" font-style="italic" font-weight="normal" text-decoration="none" x="882.730712890625" y="117.5">+getForecast(place: Coordinate, listener: WeatherResultListener): void</text></g></g><g transform="translate(-10,-10) scale(1,1)"><path fill="none" stroke="#000000" d="M 245 265 Q 246 138 877 89" stroke-miterlimit="10"/></g><g transform="translate(-10,-10) scale(1,1)"><path fill="#FFFFFF" stroke="none" d="M 857.3874715075904 98.96738311365725 L 877 89 L 856.0838439164514 82.17985229715408"/></g><g transform="translate(-10,-10) scale(1,1)"><path fill="none" stroke="#000000" d="M 857.3874715075904 98.96738311365725 L 877 89 L 856.0838439164514 82.17985229715408 L 857.3874715075904 98.96738311365725" stroke-miterlimit="10"/></g><g transform="translate(-10,-10) scale(1,1)"><rect fill="#C0C0C0" stroke="none" x="508.13671875" y="160" width="266.59423828125" height="325" opacity="0.2"/></g><g transform="translate(-10,-10) scale(1,1)"><rect fill="#ffffff" stroke="none" x="501.13671875" y="153" width="266.59423828125" height="325"/></g><g transform="translate(-10,-10) scale(1,1)"><path fill="none" stroke="#000000" d="M 501.13671875 153 L 767.73095703125 153 L 767.73095703125 478 L 501.13671875 478 L 501.13671875 153 Z Z" stroke-miterlimit="10"/></g><g transform="translate(-10,-10) scale(1,1)"><path fill="none" stroke="#000000" d="M 501.13671875 193 L 767.73095703125 193" stroke-miterlimit="10"/></g><g transform="translate(-10,-10) scale(1,1)"><path fill="none" stroke="#000000" d="M 501.13671875 291 L 767.73095703125 291" stroke-miterlimit="10"/></g><g transform="translate(-10,-10) scale(1,1)"><g><path fill="none" stroke="none"/><text fill="#000000" stroke="none" font-family="Arial" font-size="13px" font-style="normal" font-weight="bold" text-decoration="none" x="594.691162109375" y="172.5">WeatherState</text></g></g><g transform="translate(-10,-10) scale(1,1)"><g><path fill="none" stroke="none"/><text fill="#000000" stroke="none" font-family="Arial" font-size="13px" font-style="normal" font-weight="normal" text-decoration="none" x="582.06884765625" y="187.5">(from MyWeather)</text></g></g><g transform="translate(-10,-10) scale(1,1)"><g><path fill="none" stroke="none"/><text fill="#000000" stroke="none" font-family="Arial" font-size="13px" font-style="normal" font-weight="normal" text-decoration="none" x="506.13671875" y="210.5">-temperature: Double</text></g></g><g transform="translate(-10,-10) scale(1,1)"><g><path fill="none" stroke="none"/><text fill="#000000" stroke="none" font-family="Arial" font-size="13px" font-style="normal" font-weight="normal" text-decoration="none" x="506.13671875" y="225.5">-description: String</text></g></g><g transform="translate(-10,-10) scale(1,1)"><g><path fill="none" stroke="none"/><text fill="#000000" stroke="none" font-family="Arial" font-size="13px" font-style="normal" font-weight="normal" text-decoration="none" x="506.13671875" y="240.5">-icon: String</text></g></g><g transform="translate(-10,-10) scale(1,1)"><g><path fill="none" stroke="none"/><text fill="#000000" stroke="none" font-family="Arial" font-size="13px" font-style="normal" font-weight="normal" text-decoration="none" x="506.13671875" y="255.5">-date: String</text></g></g><g transform="translate(-10,-10) scale(1,1)"><g><path fill="none" stroke="none"/><text fill="#000000" stroke="none" font-family="Arial" font-size="13px" font-style="normal" font-weight="normal" text-decoration="none" x="506.13671875" y="270.5">-pressure: Double</text></g></g><g transform="translate(-10,-10) scale(1,1)"><g><path fill="none" stroke="none"/><text fill="#000000" stroke="none" font-family="Arial" font-size="13px" font-style="normal" font-weight="normal" text-decoration="none" x="506.13671875" y="285.5">-humidity: Double</text></g></g><g transform="translate(-10,-10) scale(1,1)"><g><path fill="none" stroke="none"/><text fill="#000000" stroke="none" font-family="Arial" font-size="13px" font-style="normal" font-weight="normal" text-decoration="none" x="506.13671875" y="308.5">+getDescription(): String</text></g></g><g transform="translate(-10,-10) scale(1,1)"><g><path fill="none" stroke="none"/><text fill="#000000" stroke="none" font-family="Arial" font-size="13px" font-style="normal" font-weight="normal" text-decoration="none" x="506.13671875" y="323.5">+setDescription(description: String): void</text></g></g><g transform="translate(-10,-10) scale(1,1)"><g><path fill="none" stroke="none"/><text fill="#000000" stroke="none" font-family="Arial" font-size="13px" font-style="normal" font-weight="normal" text-decoration="none" x="506.13671875" y="338.5">+getTemperature(): Double</text></g></g><g transform="translate(-10,-10) scale(1,1)"><g><path fill="none" stroke="none"/><text fill="#000000" stroke="none" font-family="Arial" font-size="13px" font-style="normal" font-weight="normal" text-decoration="none" x="506.13671875" y="353.5">+setTemperature(temperature: Double): void</text></g></g><g transform="translate(-10,-10) scale(1,1)"><g><path fill="none" stroke="none"/><text fill="#000000" stroke="none" font-family="Arial" font-size="13px" font-style="normal" font-weight="normal" text-decoration="none" x="506.13671875" y="368.5">+getDate(): String</text></g></g><g transform="translate(-10,-10) scale(1,1)"><g><path fill="none" stroke="none"/><text fill="#000000" stroke="none" font-family="Arial" font-size="13px" font-style="normal" font-weight="normal" text-decoration="none" x="506.13671875" y="383.5">+setDate(date: String): void</text></g></g><g transform="translate(-10,-10) scale(1,1)"><g><path fill="none" stroke="none"/><text fill="#000000" stroke="none" font-family="Arial" font-size="13px" font-style="normal" font-weight="normal" text-decoration="none" x="506.13671875" y="398.5">+setIcon(icon: String): void</text></g></g><g transform="translate(-10,-10) scale(1,1)"><g><path fill="none" stroke="none"/><text fill="#000000" stroke="none" font-family="Arial" font-size="13px" font-style="normal" font-weight="normal" text-decoration="none" x="506.13671875" y="413.5">+getIcon(): String</text></g></g><g transform="translate(-10,-10) scale(1,1)"><g><path fill="none" stroke="none"/><text fill="#000000" stroke="none" font-family="Arial" font-size="13px" font-style="normal" font-weight="normal" text-decoration="none" x="506.13671875" y="428.5">+getPressure(): double</text></g></g><g transform="translate(-10,-10) scale(1,1)"><g><path fill="none" stroke="none"/><text fill="#000000" stroke="none" font-family="Arial" font-size="13px" font-style="normal" font-weight="normal" text-decoration="none" x="506.13671875" y="443.5">+getHumidity(): double</text></g></g><g transform="translate(-10,-10) scale(1,1)"><g><path fill="none" stroke="none"/><text fill="#000000" stroke="none" font-family="Arial" font-size="13px" font-style="normal" font-weight="normal" text-decoration="none" x="506.13671875" y="458.5">+setPressure(pressure: Double): void</text></g></g><g transform="translate(-10,-10) scale(1,1)"><g><path fill="none" stroke="none"/><text fill="#000000" stroke="none" font-family="Arial" font-size="13px" font-style="normal" font-weight="normal" text-decoration="none" x="506.13671875" y="473.5">+setHumidity(humidity: Double): void</text></g></g><g transform="translate(-10,-10) scale(1,1)"><path fill="none" stroke="#000000" d="M 635 152 Q 635 138 877 103" stroke-miterlimit="10"/></g><g transform="translate(-10,-10) scale(1,1)"><rect fill="#C0C0C0" stroke="none" x="805.73095703125" y="212.5" width="608.13623046875" height="220" opacity="0.2"/></g><g transform="translate(-10,-10) scale(1,1)"><rect fill="#ffffff" stroke="none" x="798.73095703125" y="205.5" width="608.13623046875" height="220"/></g><g transform="translate(-10,-10) scale(1,1)"><path fill="none" stroke="#000000" d="M 798.73095703125 205.5 L 1406.8671875 205.5 L 1406.8671875 425.5 L 798.73095703125 425.5 L 798.73095703125 205.5 Z Z" stroke-miterlimit="10"/></g><g transform="translate(-10,-10) scale(1,1)"><path fill="none" stroke="#000000" d="M 798.73095703125 245.5 L 1406.8671875 245.5" stroke-miterlimit="10"/></g><g transform="translate(-10,-10) scale(1,1)"><path fill="none" stroke="#000000" d="M 798.73095703125 388.5 L 1406.8671875 388.5" stroke-miterlimit="10"/></g><g transform="translate(-10,-10) scale(1,1)"><g><path fill="none" stroke="none"/><text fill="#000000" stroke="none" font-family="Arial" font-size="13px" font-style="normal" font-weight="bold" text-decoration="none" x="1064.86865234375" y="225">XMLWeather</text></g></g><g transform="translate(-10,-10) scale(1,1)"><g><path fill="none" stroke="none"/><text fill="#000000" stroke="none" font-family="Arial" font-size="13px" font-style="normal" font-weight="normal" text-decoration="none" x="1050.43408203125" y="240">(from MyWeather)</text></g></g><g transform="translate(-10,-10) scale(1,1)"><g><path fill="none" stroke="none"/><text fill="#000000" stroke="none" font-family="Arial" font-size="13px" font-style="normal" font-weight="normal" text-decoration="none" x="803.73095703125" y="263">-xpathFactory: XPathFactory {readOnly}</text><path fill="none" stroke="#000000" d="M 803.73095703125 263 L 1034.22705078125 263" stroke-miterlimit="10"/></g></g><g transform="translate(-10,-10) scale(1,1)"><g><path fill="none" stroke="none"/><text fill="#000000" stroke="none" font-family="Arial" font-size="13px" font-style="normal" font-weight="normal" text-decoration="none" x="803.73095703125" y="278">-QUERY_CURRENT_STATE: String = "/current/weather" {readOnly}</text><path fill="none" stroke="#000000" d="M 803.73095703125 278 L 1198.40283203125 278" stroke-miterlimit="10"/></g></g><g transform="translate(-10,-10) scale(1,1)"><g><path fill="none" stroke="none"/><text fill="#000000" stroke="none" font-family="Arial" font-size="13px" font-style="normal" font-weight="normal" text-decoration="none" x="803.73095703125" y="293">-QUERY_CURRENT_TEMP: String = "/current/temperature" {readOnly}</text><path fill="none" stroke="#000000" d="M 803.73095703125 293 L 1216.4619140625 293" stroke-miterlimit="10"/></g></g><g transform="translate(-10,-10) scale(1,1)"><g><path fill="none" stroke="none"/><text fill="#000000" stroke="none" font-family="Arial" font-size="13px" font-style="normal" font-weight="normal" text-decoration="none" x="803.73095703125" y="308">-QUERY_CURRENT_HUMIDITY: String = "/current/humidity" {readOnly}</text><path fill="none" stroke="#000000" d="M 803.73095703125 308 L 1221.49560546875 308" stroke-miterlimit="10"/></g></g><g transform="translate(-10,-10) scale(1,1)"><g><path fill="none" stroke="none"/><text fill="#000000" stroke="none" font-family="Arial" font-size="13px" font-style="normal" font-weight="normal" text-decoration="none" x="803.73095703125" y="323">-QUERY_CURRENT_PRESSURE: String = "/current/pressure" {readOnly}</text><path fill="none" stroke="#000000" d="M 803.73095703125 323 L 1232.3564453125 323" stroke-miterlimit="10"/></g></g><g transform="translate(-10,-10) scale(1,1)"><g><path fill="none" stroke="none"/><text fill="#000000" stroke="none" font-family="Arial" font-size="13px" font-style="normal" font-weight="normal" text-decoration="none" x="803.73095703125" y="338">-QUERY_FORECTAST_TIME: String = "/weatherdata/forecast/time" {readOnly}</text><path fill="none" stroke="#000000" d="M 803.73095703125 338 L 1261.9873046875 338" stroke-miterlimit="10"/></g></g><g transform="translate(-10,-10) scale(1,1)"><g><path fill="none" stroke="none"/><text fill="#000000" stroke="none" font-family="Arial" font-size="13px" font-style="normal" font-weight="normal" text-decoration="none" x="803.73095703125" y="353">-QUERY_FORECTAST_DESCRIPTION: String = "/weatherdata/forecast/time/symbol" {readOnly}</text><path fill="none" stroke="#000000" d="M 803.73095703125 353 L 1364.5654296875 353" stroke-miterlimit="10"/></g></g><g transform="translate(-10,-10) scale(1,1)"><g><path fill="none" stroke="none"/><text fill="#000000" stroke="none" font-family="Arial" font-size="13px" font-style="normal" font-weight="normal" text-decoration="none" x="803.73095703125" y="368">-QUERY_FORECTAST_TEMPERATURE: String = "/weatherdata/forecast/time/temperature" {readOnly}</text><path fill="none" stroke="#000000" d="M 803.73095703125 368 L 1402.8671875 368" stroke-miterlimit="10"/></g></g><g transform="translate(-10,-10) scale(1,1)"><g><path fill="none" stroke="none"/><text fill="#000000" stroke="none" font-family="Arial" font-size="13px" font-style="normal" font-weight="normal" text-decoration="none" x="803.73095703125" y="383">-retriver: DataRetriver</text></g></g><g transform="translate(-10,-10) scale(1,1)"><g><path fill="none" stroke="none"/><text fill="#000000" stroke="none" font-family="Arial" font-size="13px" font-style="normal" font-weight="normal" text-decoration="none" x="803.73095703125" y="406">+getActualWeather(place: Coordinate, listener: WeatherResultListener): void</text></g></g><g transform="translate(-10,-10) scale(1,1)"><g><path fill="none" stroke="none"/><text fill="#000000" stroke="none" font-family="Arial" font-size="13px" font-style="normal" font-weight="normal" text-decoration="none" x="803.73095703125" y="421">+getForecast(place: Coordinate, listener: WeatherResultListener): void</text></g></g><g transform="translate(-10,-10) scale(1,1)"><path fill="none" stroke="#000000" d="M 1103 205 Q 1103 138 1103 123" stroke-miterlimit="10"/></g><g transform="translate(-10,-10) scale(1,1)"><path fill="#FFFFFF" stroke="none" d="M 1111.419035512032 143.3253497152483 L 1103 123 L 1094.580964487968 143.3253497152483"/></g><g transform="translate(-10,-10) scale(1,1)"><path fill="none" stroke="#000000" d="M 1111.419035512032 143.3253497152483 L 1103 123 L 1094.580964487968 143.3253497152483 L 1111.419035512032 143.3253497152483" stroke-miterlimit="10"/></g><g transform="translate(-10,-10) scale(1,1)"><path fill="#C0C0C0" stroke="none" d="M 2008.4677734375 302.5 C 2008.4677734375 296.1487248 2013.6164982375 291 2019.9677734375 291 C 2026.3190486375 291 2031.4677734375 296.1487248 2031.4677734375 302.5 C 2031.4677734375 308.8512752 2026.3190486375 314 2019.9677734375 314 C 2013.6164982375 314 2008.4677734375 308.8512752 2008.4677734375 302.5 Z" opacity="0.2"/></g><g transform="translate(-10,-10) scale(1,1)"><path fill="#ffffff" stroke="none" d="M 2001.4677734375 295.5 C 2001.4677734375 289.1487248 2006.6164982375 284 2012.9677734375 284 C 2019.3190486375 284 2024.4677734375 289.1487248 2024.4677734375 295.5 C 2024.4677734375 301.8512752 2019.3190486375 307 2012.9677734375 307 C 2006.6164982375 307 2001.4677734375 301.8512752 2001.4677734375 295.5 Z"/></g><g transform="translate(-10,-10) scale(1,1)"><path fill="none" stroke="#000000" d="M 2001.4677734375 295.5 C 2001.4677734375 289.1487248 2006.6164982375 284 2012.9677734375 284 C 2019.3190486375 284 2024.4677734375 289.1487248 2024.4677734375 295.5 C 2024.4677734375 301.8512752 2019.3190486375 307 2012.9677734375 307 C 2006.6164982375 307 2001.4677734375 301.8512752 2001.4677734375 295.5 Z" stroke-miterlimit="10"/></g><g transform="translate(-10,-10) scale(1,1)"><g><path fill="none" stroke="none"/><text fill="#000000" stroke="none" font-family="Arial" font-size="13px" font-style="normal" font-weight="bold" text-decoration="none" x="1946.853759765625" y="326.5">WeatherResultListener</text></g></g><g transform="translate(-10,-10) scale(1,1)"><g><path fill="none" stroke="none"/><text fill="#000000" stroke="none" font-family="Arial" font-size="13px" font-style="normal" font-weight="normal" text-decoration="none" x="1960.602783203125" y="341.5">(from MyWeather)</text></g></g><g transform="translate(-10,-10) scale(1,1)"><path fill="none" stroke="#000000" d="M 1673 212 Q 1673 138 1329 98" stroke-miterlimit="10"/></g><g transform="translate(-10,-10) scale(1,1)"><path fill="none" stroke="#000000" d="M 2012 283 Q 2013 138 1329 88" stroke-miterlimit="10"/></g><g transform="translate(-10,-10) scale(1,1)"><path fill="none" stroke="#000000" d="M 635 508 Q 635 494 635 479" stroke-miterlimit="10"/></g><g transform="translate(-10,-10) scale(1,1)"><path fill="#FFFFFF" stroke="none" d="M 639.209517756016 489.16267485762415 L 635 479 L 630.790482243984 489.16267485762415 L 635 501"/></g><g transform="translate(-10,-10) scale(1,1)"><path fill="none" stroke="#000000" d="M 639.209517756016 489.16267485762415 L 635 479 L 630.790482243984 489.16267485762415 L 635 501 L 639.209517756016 489.16267485762415" stroke-miterlimit="10"/></g></g></svg>